<?xml version="1.0" encoding="UTF-8"?>
<svg id="Capa_2" data-name="Capa 2" xmlns="http://www.w3.org/2000/svg" viewBox="0 0 799 799">
  <defs>
    <style>
      .cls-1 {
        fill: #39393a;
      }

      .cls-2 {
        fill: #f4faff;
      }
    </style>
  </defs>
  <g id="Layer_1" data-name="Layer 1">
    <g>
      <circle class="cls-1" cx="399.5" cy="399.5" r="399.5"/>
      <path class="cls-2" d="m443.54,580.04c-13.96-1.4-28.64-2.11-44.05-2.11-11.8,0-21.08-1.85-26.84-5.34-2.11-1.28-5.29-3.65-8.65-9.5-6.33-11.02-8.28-25.23-8.55-30.32V217.86c13.96,1.39,28.65,2.08,44.04,2.08,11.8,0,21.08,1.85,26.84,5.34,2.11,1.28,5.29,3.65,8.65,9.5,6.33,11.01,8.28,25.22,8.55,30.32v314.95m90.91,151.99v-468.07s0-134.93-134.95-134.93-134.95-62.07-134.95-62.07v466.94s0,134.94,134.95,134.94,134.95,63.19,134.95,63.19h0Z"/>
    </g>
  </g>
</svg>